<?xml version="1.0" encoding="utf-8"?>
<svg version="1.1" id="Layer_1" xmlns="http://www.w3.org/2000/svg" xmlns:xlink="http://www.w3.org/1999/xlink" x="0px" y="0px"
	 viewBox="0 0 2622.2 1186.314" enable-background="new 0 0 2622.2 1186.314" xml:space="preserve">
<path stroke="#000000" stroke-width="0.0938" d="M668.431,138.24C669.011,138.81,669.011,138.81,668.431,138.24z" fill="#FFFFFF"/>
<path d="M2564.267,339.868c10.644-8.298,14.873-8.751,23.234-25.082c0.494-3.193-1.511-6.023-2.812-8.746
	c-3.225-6.272-10.407-8.548-15.748-12.527c-1.979-3.592,4.335-5.999,1.94-9.585c-2.58-5.043-1.332-11.175-4.749-15.871
	c-2.632-5.252-9.018-5.367-13.895-7.08c-5.101-0.76-8.273-5.965-13.524-6.021c-37.493-5.605-26.292-2.327-43.021-0.866
	c-12.894,0.904-25.073-3.123-51.231,4.85c-12.825,2.289-24.165,9.618-37.224,10.975c-10.26,3.009-19.927,7.968-28.845,13.797
	c-3.567,2.105-4.318,6.651-7.53,9.108c-2.489,2.274-6.705,2.526-7.87,6.082c-5.256,8.091,0.927,17.417-0.252,26.21
	c-23.393,19.101-19.862,32.533,7.829,42.536c0.173,20.209,5.297,110.897,5.337,111.898c-6.403,0.078-12.822-0.537-19.191,0.068
	c-19.392,3.168-14.816-1.869-32.122-2.272c-45.658-0.221-85.797-4.015-85.797-4.015c-7.153,1.064-14.495,1.889-21.648,0.361
	c-8.873-2.234-18.103-0.386-26.995-2.287c-12.24-2.26-24.541,2.809-36.669-0.349c-15.863-4.781-48.76-0.578-63.987-3.307
	c-10.493-2.315-21.285-0.644-31.879-1.853c-21.131-2.332-20.648,2.282-39.188-1.456c-8.743-0.818-17.593-0.184-26.256-1.749
	c-12.728-2.073-25.453,2.628-38.128-0.096c-6.927-1.773-14.087-1.139-21.1-1.819c-27.148-3.481-30.752,2.52-46.914-0.901
	c-12.929-4.238-26.764-1.147-40.05-2.98c-1.581-23.013-1.962-215.899-7.03-276.775c-0.622-7.107,4.499-5.783,31.549-40.827
	c-18.497-15.03-23.355-15.101-23.383-20.269c-1.299-36.976,0.894-36.56,3.234-40.323c-4.393-5.141-10.07-8.89-14.759-13.717
	c-2,2.046-3.288,7.208-6.856,5.945c-1.244-3.664-0.198-7.554,0.512-11.215c-4.961-4.277-9.312-9.459-15.038-12.71
	c-10.942-0.258-21.708-2.785-32.691-2.24c-0.479,8.306-0.944,16.625-0.093,24.91c-6.154,0.123-12.283-0.39-18.336-1.401
	c0.057-7.952,0.17-15.903,0.394-23.853c-7.879-3.77-16.726-2.456-25.023-4.306c-7.995-1.707-15.534,1.844-22.983,4.136
	c-3.597,1.411-8.429,2.041-9.579,6.415c0.301,7.196,0.892,14.451,0.071,21.629c-4.168,3.328-10.219,3.966-15.44,4.7
	c0.448-8.126,1.777-16.709-2.023-24.293c-23.491,9.098-20.162,0.674-35.167,28.785c0.676,1.078,1.393,2.17,2.11,3.248
	c-7.255,6.604-12.514,14.958-16.577,23.816c4.323,5.182,3.559,12.263,3.598,18.54c0.032,10.687-16.866,32.928-21.411,46.323
	c9.348,6.342,18.469,13.028,28.002,19.096c0.081,3.59,0.121,7.179-0.047,10.765c-13.005,0.568-25.864-1.95-38.862-1.839
	c-1.307,8.971-0.523,18.031-1.083,27.042c-4.99,0.128-10.035,0.228-14.908-0.917c0.321-15.776,0.725-31.565,0.616-47.334
	c-0.715-5.526,5.875-7.831,6.609-13.016c2.658-14.644-2.401-30.132,3.215-44.313c1.363-7.28-5.234-12.346-9.973-16.661
	c-4.151,3.993-4.531,9.585-4.438,15.018c-9.886-3.885-0.25-16.436-6.806-22.36c-30.243-11.344-70.309-6.381-70.682,1.269
	c0.239,5.851,0.409,11.7,0.135,17.557c-3.582,1.301-7.19,2.546-10.915,3.29c-0.243-6.461,1.369-13.75-3.788-18.793
	c-33.196,25.153-18.099,27.848-18.866,38.771c-0.396,38.846-0.508,28.223,5.393,39.726c0.892,5.736,0.313,11.643,1.872,17.307
	c-11.609-0.102-23.174-1.27-34.788-1.054c-0.661,4.049-1.128,8.143-1.304,12.255c-3.945-0.201-7.865-0.333-11.798-0.41
	c-0.275,5.094-0.384,10.191-0.563,15.287c-3.836-0.089-7.673-0.192-11.495-0.28c0.087-8.921,0.618-17.905-0.612-26.778
	c-8.919-0.225-17.842-0.229-26.747-0.482c0.511-12.919-0.71-25.865,0.659-38.743c-51.21-0.803-102.42-1.661-153.617-2.423
	c-0.305,13.033-0.375,26.084-0.68,39.13c-9.153,0.505-18.305,0.983-27.472,0.656c-0.693,8.718-0.126,17.456-0.432,26.193
	c-5.611-0.006-11.207-0.11-16.802-0.254c0.039-5.057,0.134-10.126,0.187-15.182c-2.756-0.044-5.5-0.046-8.244-0.021
	c0.06-3.74,0.022-7.481,0.096-11.221c-18.41-0.252-36.828-0.865-55.237-0.244c-0.504,8.998-0.301,18.021-0.598,27.036
	c-2.467,0.03-4.906,0.088-7.332,0.16c-0.181-5.171-0.084-10.337,0.427-15.483c-5.943-0.067-11.961-0.648-17.801,0.672
	c0.106-4.016,0.114-8.034,0.206-12.051c-12.345-0.848-24.644,2.295-36.959,0.422c0.299-7.463,0.682-14.939,0.274-22.414
	c5.73,1.241,8.306-5.617,8.13-10.22c-0.364-11.035,1.404-22.008,0.86-33.045c1.1-2.948,2.888-5.621,3.672-8.684
	c-0.378-9.317-8.385-15.444-14.752-21.115c-6.792,2.76-5.447,11.399-5.223,17.319c-2.588-1.053-5.247-2.023-7.449-3.777
	c-0.544-6.715,1.716-13.759-1.119-20.205c-22.902-7.008-45.427-6.97-67.175-0.573c-4.375-13.143-6.385-4.869-7.595-15.501
	c1.548,0.219,3.124,0.438,4.7,0.657c-0.656-6.647-0.613-13.685-3.285-19.893c-6.526-6.935-15.877-10.52-24.99-12.48
	c-3.359,6.486-3.681,13.644-3.795,20.792c-2.131,3.305-6.2,0.441-8.801-0.708c-1.587-7.341-0.245-15.065,0.525-22.465
	c-1.021-1.984-2.15-4.191-4.339-5.071c-22.172-10.341-15.224-6.071-53.111-5.863c-0.317,8.558,0.031,17.153-0.756,25.703
	c-6.282,1.216-12.63,2.209-19.037,1.733c2.451-8.62,1.335-17.672,1.684-26.506c-11.964,3.01-24.626-0.559-36.45,3.27
	c-6.729,3.204-11.821,8.817-17.778,13.156c3.456,6.567,2.876,14.261,2.083,21.398c-0.212,1.978-2.042,2.932-3.673,3.585
	c0.44-7.586-0.687-15.141-4.264-21.904c-7.947,3.974-14.77,9.588-21.198,15.623c1.398,4.428,3.504,8.799,3.025,13.585
	c-0.568,10.396,0.29,20.926-1.011,31.241c-6.485,6.118-15.056,9.265-22.098,14.667c2.394,6.344,18.662,45.319,19.293,46.474
	c1.814,3.521,5.771,4.747,9.098,6.38c0,0-6.582,234.575-6.582,234.576c-3.081,1.156-5.92,2.857-8.947,4.111
	c-17.641,2.808-35.6,0.374-53.333,2.003c-3.052,8.957-0.975,18.564-2.203,27.8c-6.837,0.39-13.677,0.142-20.519-0.05
	c0.936-9.171,0.958-18.398,0.052-27.571c-4.514-0.169-8.973,0.522-13.44,0.922c-11.521,0.467-23.162-1.145-34.584,0.945
	c-1.163,8.613,0.43,17.326-0.705,25.954c-0.421,0.354-1.264,1.047-1.685,1.4c-5.814,0.558-11.668,0.119-17.5,0.053
	c-0.339-9.136,1.321-18.531-1.113-27.479c-12.024,2.468-24.377-0.555-36.448,1.372c-3.014,0.437-6.063,0.513-9.085,0.631
	c-3.152,8.249-0.871,17.25-2.074,25.807c-5.607,3.18-12.997,0.915-19.28,1.327c-0.317-8.803,1.657-17.861-0.922-26.451
	c-8.719,0.221-17.476-0.611-26.165,0.4c-5.997,0.722-12.049,0.57-18.076,0.515c-3.724,9.753-0.887-3.362-1.967,26.044
	c-6.839,1.401-13.842,1.747-20.785,1.026c2.201-8.555,1.857-17.4,1.068-26.1c-14.517-1.049-28.903,1.797-43.42,0.707
	c-2.892,8.447-1.36,17.505-1.957,26.252c-6.321,1.922-12.961,1.262-19.454,0.964c2.381-8.552,1.706-17.486,1.388-26.234
	c-14.027,2.104-28.264-0.049-42.242,2.402c-4.306,7.621-0.439,17.091-2.923,25.128c-5.44,2.255-11.506,1.257-17.16,0.433
	c0.081-8.547,0.8-17.154-0.728-25.616c-2.739,0.494-34.701,1.788-40.402,1.711c-3.371,8.093-2.547,17.209-2.115,25.779
	c-6.41,0.563-12.863,0.363-19.256-0.183c1.391-8.18,2.686-16.403,1.488-24.694c-4.626-0.088-9.267-0.148-13.825,0.708
	c-14.193,2.281-23.968-4.001-27.887,5.832c0.335,6.781,0.365,13.584,0.132,20.369c-5.952-0.372-12.035,2.247-17.804,0.021
	c2.149-7.919,1.463-16.174,0.594-24.21c-11.532,0.301-23.093,1.516-34.602,0.307c-0.053-1.012-0.132-3.036-0.171-4.035
	c2.192-0.159,4.383-0.304,6.574-0.422c2.624-6.442,2.778-13.451,3.011-20.278c1.698-4.853,4.288-24.992-3.127-35.894
	c8.055-7.362,3.974-0.383,6.743-30.111c7.58,0.811,18.259-7.73,21.147-13.282c8.035-14.126-2.794-22.962-12.58-33.066
	c0.975-8.118,3.997-16.895-0.439-24.572c-2.171-2.016-4.793-3.54-6.682-5.856c-7.531-7.931,2.269-4.461-19.423-16.659
	c-8.748-5.765-19.654-5.648-29.019-10.037c-14.217-7.736-30.81-8.112-46.423-10.827c-6.427,0.743-12.894,1.429-19.398,0.896
	c-4.919,0.046-9.677-2.219-14.612-1.203c-9.723,1.494-19.761,1.943-29.11,5.202c-10.565,9.93-17.451,2.242-24.808,15.233
	c-1.89,4.694-2.183,10.038-5.188,14.285c0.543,3.292,4.539,8.164,0.54,10.469c-18.314,13.375-23.443,25.401,5.241,46.679
	c-2.238,186.346-27.637,701.553-27.637,701.553c1003.922,111.851,807.735,94.816,1000.029,95.107
	c2.852,10.589,5.049,21.348,7.956,31.925c185.001-0.419,176.308,0.125,176.308,0.125c1.816-6.433,3.492-12.905,5.461-19.297
	c308.384-0.856,241.319-5.312,282.586,22.187c59.911-2.633,119.838-6.277,179.742-9.353c3.661-6.274,6.704-12.875,10.282-19.178
	c353.436-19.849-42.659,7.947,897.341-79.126c1.36-0.126-7.128-156.351-7.8-170.615
	C2561.566,418.733,2564.267,339.868,2564.267,339.868z M273.633,590.203c20.759-0.209,41.516-0.335,62.286-0.434
	c-0.416,29.533-0.901,59.079-1.4,88.61c-21.235-0.297-42.47-0.622-63.691-1.016C271.723,648.31,272.643,619.256,273.633,590.203z
	 M328.368,972.015c-23.478-2.176-46.955-4.393-70.431-6.666c1.51-43.412,3.172-86.808,4.737-130.22
	c-0.386-10.41,17.199-30.113,37.504-26.808c10.926,2.073,21.764,7.095,28.814,15.95C338.17,835.826,337.528,830.924,328.368,972.015
	z M452.388,588.884c23.072-0.159,46.142-0.248,69.226-0.309c-0.916,31.381-1.888,62.762-2.915,94.142
	c-23.064-0.34-46.141-0.708-69.203-1.118C450.404,650.703,451.369,619.793,452.388,588.884z M437.803,982.046
	c1.984-148.398,1.706-138.188,3.87-141.013c23.853-33.181,58.322-23.19,72.878-4.297c2.234,2.416,2.205-7.177,2.007,152.163
	C490.312,986.583,464.035,984.46,437.803,982.046z M718.676,1000.423c-29.525-0.887-59.05-1.829-88.56-2.84
	c1.554-46.155,3.135-92.323,4.814-138.476c-0.487-13.545,17.175-35.744,42.253-32.648c17.763,1.738,34.946,11.088,45.031,25.963
	C724.35,855.129,724.662,845.376,718.676,1000.423z M1375.417,350.776c7.606,7.33,6.606-0.997,4.848,85.232
	c-10.574-0.695-21.151-1.224-31.712-1.933c-0.289-23.573-0.592-47.159-0.396-70.738
	C1347.687,354.375,1359.331,336.557,1375.417,350.776z M1320.696,345.095c6.849,1.495,12.646,8.072,12.434,15.245
	c0.489,24.961,1.019,49.923,1.48,74.884c-11.083-0.108-22.15-0.298-33.231-0.516c0.299-23.106,0.792-46.209,1.036-69.315
	C1301.595,355.196,1310.872,346.019,1320.696,345.095z M1269.782,345.697c10.313-1.166,18.661,8.833,20.16,18.209
	c0.31,24.002,0.218,48.012,0.306,72.011c-11.996-0.136-23.992-0.341-35.973-0.56c0.293-23.577,0.78-47.151,1.073-70.714
	C1255.205,356.216,1261.155,347.166,1269.782,345.697z M1244.781,1118.272c0.007-12.287-0.051-195.873,1.055-201.647
	c14.784-24.371,41.953-39.012,69.492-43.88c16.033-3.993,73.138,11.788,85.934,50.155c0.386,17.965-1.351,194.585-1.374,196.446
	C1348.185,1119.021,1296.482,1118.695,1244.781,1118.272z M1963.721,600.509c0.531,31.848,0.882,63.721,1.302,95.581
	c-23.999-0.798-47.983-1.638-71.951-2.575c-0.552-31.377-0.883-62.765-1.325-94.154
	C1915.739,599.688,1939.731,600.084,1963.721,600.509z M1890.845,1009.45c-4.545-158.95-4.611-144.787,2.514-154.973
	c9.176-12.379,23.864-19.405,38.655-22.508c4.312-1.067,8.461,1.188,12.428,2.623c33.441,13.839,30.227,32.361,30.396,41.829
	c0.582,43.39,1.303,86.783,1.817,130.186C1948.067,1007.703,1919.444,1008.438,1890.845,1009.45z M2160.453,602.248
	c0.546,30.92,0.87,61.85,1.346,92.783c-22.628,0.179-45.243,0.317-67.869,0.331c-1.003-30.927-1.798-61.851-2.718-92.777
	C2114.285,602.384,2137.369,602.309,2160.453,602.248z M2096.054,997.441c-2.099-43.899-4.239-87.813-6.115-131.709
	c2.486-18.596,19.923-34.681,39.016-33.822c13.541,3.333,42.341,14.253,41.339,28.135c0.193,44.34,0.428,88.681,0.58,133.02
	C2145.936,994.634,2120.988,996.01,2096.054,997.441z M2278.197,605.608c20.76-0.334,41.544-0.363,62.315-0.489
	c0.547,30.019,0.941,60.036,1.39,90.054c-20.3-0.739-40.599-1.521-60.897-2.412C2280,663.719,2279.189,634.651,2278.197,605.608z
	 M2352.534,978.061c-6.491,0.968-63.975,5.67-70.602,5.801c-0.88-9.211-2.85-115.712-1.764-136.988
	c5.405-14.85,21.787-24.703,37.418-23.11c45.229,14.585,30.468,27.917,34.301,84.538
	C2351.953,909.315,2352.984,965.964,2352.534,978.061z" fill="#FFFFFF"/>
</svg>
